<svg width="288" height="288" viewBox="0 0 288 288" fill="none" xmlns="http://www.w3.org/2000/svg">
<g clip-path="url(#clip0_14_24)">
<g clip-path="url(#clip1_14_24)">
<mask id="mask0_14_24" style="mask-type:alpha" maskUnits="userSpaceOnUse" x="0" y="0" width="288" height="288">
<path d="M144 288C223.529 288 288 223.529 288 144C288 64.471 223.529 0 144 0C64.471 0 0 64.471 0 144C0 223.529 64.471 288 144 288Z" fill="#FFE9FF"/>
</mask>
<g mask="url(#mask0_14_24)">
<path d="M144 288C223.529 288 288 223.529 288 144C288 64.471 223.529 0 144 0C64.471 0 0 64.471 0 144C0 223.529 64.471 288 144 288Z" fill="#FFDEFF"/>
<path d="M60.9054 232.91L114.159 286.929L170.075 298.754C171.833 299.126 173.661 298.974 175.332 298.317L232.757 275.758L275.911 234.134L284.327 192.969L149.509 56.9267L235.511 231.532L60.9054 232.91Z" fill="url(#paint0_linear_14_24)"/>
<path d="M140.021 57.2327L59.6812 223.728L140.021 180.88V57.2327Z" fill="url(#paint1_linear_14_24)"/>
<path d="M142.317 184.859L66.7205 227.248L222.045 227.401L142.317 184.859Z" fill="url(#paint2_linear_14_24)"/>
<path d="M226.482 224.493L144.765 57.5388L145.836 181.033L226.482 224.493Z" fill="url(#paint3_linear_14_24)"/>
</g>
</g>
</g>
<defs>
<linearGradient id="paint0_linear_14_24" x1="60.9054" y1="102.376" x2="295.957" y2="281.879" gradientUnits="userSpaceOnUse">
<stop stop-color="#FADAF1"/>
<stop offset="1" stop-color="#AD3B8F"/>
</linearGradient>
<linearGradient id="paint1_linear_14_24" x1="94.8778" y1="149.203" x2="241.479" y2="223.728" gradientUnits="userSpaceOnUse">
<stop stop-color="#C55DA8"/>
<stop offset="1" stop-color="#85196A"/>
</linearGradient>
<linearGradient id="paint2_linear_14_24" x1="204.599" y1="215.158" x2="-21.5771" y2="213.169" gradientUnits="userSpaceOnUse">
<stop stop-color="#922B75"/>
<stop offset="1" stop-color="#AD3B8F"/>
</linearGradient>
<linearGradient id="paint3_linear_14_24" x1="102.529" y1="-37.9511" x2="274.84" y2="302.232" gradientUnits="userSpaceOnUse">
<stop stop-color="#A96A98"/>
<stop offset="0.66838" stop-color="#AC4A92"/>
<stop offset="1" stop-color="#AD3B8F"/>
</linearGradient>
<clipPath id="clip0_14_24">
<rect width="288" height="288" fill="white"/>
</clipPath>
<clipPath id="clip1_14_24">
<rect width="288" height="288" fill="white"/>
</clipPath>
</defs>
</svg>
