<svg width="288" height="288" viewBox="0 0 288 288" fill="none" xmlns="http://www.w3.org/2000/svg">
<g clip-path="url(#clip0_29_315)">
<mask id="mask0_29_315" style="mask-type:alpha" maskUnits="userSpaceOnUse" x="0" y="0" width="288" height="288">
<path d="M144 288C223.529 288 288 223.529 288 144C288 64.471 223.529 0 144 0C64.471 0 0 64.471 0 144C0 223.529 64.471 288 144 288Z" fill="#FFE9FF"/>
</mask>
<g mask="url(#mask0_29_315)">
<path d="M144 288C223.529 288 288 223.529 288 144C288 64.471 223.529 0 144 0C64.471 0 0 64.471 0 144C0 223.529 64.471 288 144 288Z" fill="#1E0010"/>
<path d="M315 282L-39.4998 210.5L0.5 62L83.5002 -36L315 282Z" fill="#3E0B30"/>
</g>
</g>
<defs>
<clipPath id="clip0_29_315">
<rect width="288" height="288" fill="white"/>
</clipPath>
</defs>
</svg>
